<svg xmlns="http://www.w3.org/2000/svg" viewBox="0 0 226.23 69.07"><defs><style>.cls-1{fill:#253747;}.cls-2{fill:#00aeef;}.cls-3{fill:#dd3751;}</style></defs><g id="Layer_2" data-name="Layer 2"><g id="Layer_1-2" data-name="Layer 1"><circle class="cls-1" cx="49.75" cy="10.26" r="10.26"/><path class="cls-1" d="M37.77,10.26a11.74,11.74,0,0,1,.48-3.32,40,40,0,0,0-20.9,5.53A41.34,41.34,0,0,1,37.9,12,11.79,11.79,0,0,1,37.77,10.26Z"/><path class="cls-1" d="M59.39,17.33a11.94,11.94,0,0,1-5.63,4.2A24.32,24.32,0,0,1,57,26.61c6.82,14.6-1.9,33.2-19.54,42.46a45.4,45.4,0,0,0,10.93-6.49C63.91,50.13,68.7,30.12,59.39,17.33Z"/><circle class="cls-2" cx="8.86" cy="23.32" r="8.86"/><path class="cls-2" d="M18.75,20.3a10.25,10.25,0,0,0-1.24-2.63A34.59,34.59,0,0,1,36.16,17a35.63,35.63,0,0,0-17.09,4.76A10.35,10.35,0,0,0,18.75,20.3Z"/><path class="cls-2" d="M2.68,31.6a10.36,10.36,0,0,0,5.71,2,21.59,21.59,0,0,0-1.35,5C5.11,52.42,17,65.57,33.91,68.75a38.66,38.66,0,0,1-10.66-2.59C7.25,59.82-1.77,44.51,2.68,31.6Z"/><circle class="cls-3" cx="35.16" cy="28.34" r="6.22"/><path class="cls-3" d="M28.17,30.31a7.37,7.37,0,0,1-.27-2A24.16,24.16,0,0,0,16.63,35a25.11,25.11,0,0,1,11.9-3.7A6.81,6.81,0,0,1,28.17,30.31Z"/><path class="cls-3" d="M42,30.87a7.29,7.29,0,0,1-2.59,3.37,15.17,15.17,0,0,1,2.7,2.44c6.38,7.39,4.36,19.67-4.39,28A27.74,27.74,0,0,0,43,59.07C50,49.24,49.48,36.79,42,30.87Z"/><path class="cls-3" d="M71.59,27.68,73,27.49l6.67-17.23h2.21l6.55,17.23,1.41.19v1.66H84.36V27.68l1.44-.24-1.26-3.52H76.91l-1.3,3.52,1.44.24v1.66H71.59Zm6.11-5.92h6.06l-3-8.19h-.08Z"/><path class="cls-3" d="M91.33,10.56V8.9h4.72V27.32l2.13.36v1.66H91.33V27.68l2.14-.36V10.93Z"/><path class="cls-3" d="M106.57,27.68l2.13-.36v-15l-2.13-.37V10.26h14.74v4.59H119.1l-.2-2.56h-7.62v6.58h7.38v2h-7.38v6.42l2.14.36v1.66h-6.85Z"/><path class="cls-3" d="M132.29,29.34c-.08-.39-.15-.73-.19-1s-.07-.61-.09-.92a6.33,6.33,0,0,1-1.87,1.6,5.35,5.35,0,0,1-5.75-.45,4,4,0,0,1-1.16-3.05,3.55,3.55,0,0,1,1.63-3.11,8,8,0,0,1,4.48-1.09H132V19.63a2.56,2.56,0,0,0-.79-2,3.07,3.07,0,0,0-2.19-.73,5.3,5.3,0,0,0-1.71.25,3.17,3.17,0,0,0-1.2.68l-.27,1.49h-2V16.6a7.76,7.76,0,0,1,2.34-1.24,9.32,9.32,0,0,1,3-.46,5.92,5.92,0,0,1,3.9,1.23,4.3,4.3,0,0,1,1.5,3.52V27c0,.17,0,.35,0,.52l1,.14v1.66Zm-4.16-1.89a4.61,4.61,0,0,0,2.35-.62A3.87,3.87,0,0,0,132,25.35V23h-2.75a4,4,0,0,0-2.51.73,2.22,2.22,0,0,0-.93,1.79,1.78,1.78,0,0,0,.58,1.42A2.6,2.6,0,0,0,128.13,27.45Z"/><path class="cls-3" d="M137.81,27.68l2.14-.36V17.19l-2.14-.37V15.16h4.72V27.32l2.14.36v1.66h-6.86Zm4.72-16.15H140V8.9h2.58Z"/><path class="cls-3" d="M146.63,16.82V15.16h4.44l.25,2.06a4.91,4.91,0,0,1,1.49-1.71,3.44,3.44,0,0,1,2-.61,4.64,4.64,0,0,1,.63,0,4.55,4.55,0,0,1,.49.1l-.34,2.4-1.47-.08a3,3,0,0,0-1.72.48,3.12,3.12,0,0,0-1.07,1.34v8.14l2.13.36v1.66h-6.85V27.68l2.14-.36V17.19Z"/><path class="cls-3" d="M157.48,22.12a7.8,7.8,0,0,1,1.7-5.18,6.3,6.3,0,0,1,9.27,0,7.77,7.77,0,0,1,1.71,5.19v.28a7.78,7.78,0,0,1-1.7,5.19,6.34,6.34,0,0,1-9.28,0,7.81,7.81,0,0,1-1.7-5.19Zm2.58.28a6.77,6.77,0,0,0,.95,3.73,3.42,3.42,0,0,0,5.61,0,6.69,6.69,0,0,0,1-3.73v-.28a6.69,6.69,0,0,0-1-3.71,3.41,3.41,0,0,0-5.62,0,6.77,6.77,0,0,0-.94,3.71Z"/><path class="cls-3" d="M175.68,27.32h5.79l.21-2.19h2.18v4.21H172.61V27.53l7.66-10.33h-5.18l-.2,2.18h-2.2V15.16h10.74v1.76Z"/><path class="cls-1" d="M83.09,38.3v3H81.54l-.14-1.54h-3V50.31l1.5.26v1.16H75.1V50.57l1.5-.26V39.73h-3l-.13,1.54H71.93v-3Z"/><path class="cls-1" d="M83.34,46.65A5.5,5.5,0,0,1,84.54,43a4.44,4.44,0,0,1,6.53,0,5.48,5.48,0,0,1,1.2,3.65v.2a5.44,5.44,0,0,1-1.2,3.65,4.46,4.46,0,0,1-6.53,0,5.48,5.48,0,0,1-1.2-3.65Zm1.82.2a4.7,4.7,0,0,0,.67,2.62,2.22,2.22,0,0,0,2,1,2.19,2.19,0,0,0,2-1,4.7,4.7,0,0,0,.67-2.62v-.2A4.69,4.69,0,0,0,89.78,44a2.2,2.2,0,0,0-2-1,2.17,2.17,0,0,0-2,1,4.69,4.69,0,0,0-.67,2.61Z"/><path class="cls-1" d="M101.07,50.25a3.21,3.21,0,0,1-2.92,1.67,3.18,3.18,0,0,1-2.54-1,4.83,4.83,0,0,1-.91-3.25V43.18l-1.15-.26V41.75h3v5.9a3.75,3.75,0,0,0,.47,2.2,1.77,1.77,0,0,0,1.47.6,3,3,0,0,0,1.6-.39,2.48,2.48,0,0,0,1-1.12V43.18l-1.33-.26V41.75h3.15v8.56l1.14.26v1.16h-2.77Z"/><path class="cls-1" d="M105.4,42.92V41.75h3.13l.17,1.45a3.64,3.64,0,0,1,1-1.2,2.44,2.44,0,0,1,1.43-.43l.43,0a1.63,1.63,0,0,1,.35.07l-.24,1.69-1-.06a2.05,2.05,0,0,0-1.21.34,2.16,2.16,0,0,0-.76.94v5.73l1.51.26v1.16H105.4V50.57l1.51-.26V43.18Z"/><path class="cls-1" d="M113.21,50.57l1.51-.26V43.18l-1.51-.26V41.75h3.32v8.56l1.51.26v1.16h-4.83Zm3.32-11.37h-1.81V37.34h1.81Z"/><path class="cls-1" d="M127.06,44.89h-1.37l-.29-1.2a2.32,2.32,0,0,0-.84-.5,3.1,3.1,0,0,0-1.14-.19,2.13,2.13,0,0,0-1.44.42,1.33,1.33,0,0,0-.47,1,1.15,1.15,0,0,0,.42.94,4.34,4.34,0,0,0,1.69.6,7.19,7.19,0,0,1,2.81,1.11,2.21,2.21,0,0,1,.92,1.86,2.58,2.58,0,0,1-1.07,2.15,4.49,4.49,0,0,1-2.81.82,7.11,7.11,0,0,1-2-.26,5.56,5.56,0,0,1-1.61-.76V48.62h1.36l.34,1.34a1.87,1.87,0,0,0,.86.41,4.48,4.48,0,0,0,1.1.13,2.61,2.61,0,0,0,1.52-.39,1.27,1.27,0,0,0,.09-2,4.28,4.28,0,0,0-1.73-.68,7.16,7.16,0,0,1-2.74-1.08,2.18,2.18,0,0,1-.92-1.84,2.61,2.61,0,0,1,1-2.08,4.09,4.09,0,0,1,2.69-.85,6.44,6.44,0,0,1,2,.29,4.31,4.31,0,0,1,1.5.82Z"/><path class="cls-1" d="M128.69,50.57l1.5-.26V43.18l-1.5-.26V41.75h3.13l.12,1.3a3.36,3.36,0,0,1,1.24-1.1,3.89,3.89,0,0,1,1.75-.38,3,3,0,0,1,1.71.46,2.8,2.8,0,0,1,1.08,1.38A3.84,3.84,0,0,1,139,42.06a3.29,3.29,0,0,1,1.81-.49,3,3,0,0,1,2.42,1,4.79,4.79,0,0,1,.88,3.15v4.55l1.5.26v1.16h-4.83V50.57l1.51-.26V45.74a3.32,3.32,0,0,0-.51-2.09,1.87,1.87,0,0,0-1.51-.61,1.92,1.92,0,0,0-1.52.67,2.88,2.88,0,0,0-.67,1.68v4.92l1.5.26v1.16h-4.82V50.57l1.5-.26V45.74a3.27,3.27,0,0,0-.52-2.05,1.83,1.83,0,0,0-1.51-.65,2.56,2.56,0,0,0-1.36.34,2.2,2.2,0,0,0-.82,1v6l1.5.26v1.16h-4.82Z"/><path class="cls-1" d="M161.14,42.27h-1.37l-.34-1.92a3.4,3.4,0,0,0-1.11-.58,4.93,4.93,0,0,0-1.61-.23,3.51,3.51,0,0,0-2.22.61,2,2,0,0,0-.77,1.6,1.74,1.74,0,0,0,.79,1.46,7.3,7.3,0,0,0,2.55,1,7.29,7.29,0,0,1,3.22,1.55,3.34,3.34,0,0,1,1.1,2.54,3.11,3.11,0,0,1-1.32,2.61,5.71,5.71,0,0,1-3.47,1,7.17,7.17,0,0,1-2.75-.5,5.75,5.75,0,0,1-2-1.33v-2.5h1.37l.35,1.93a4.58,4.58,0,0,0,1.25.71,5,5,0,0,0,1.74.27,3.64,3.64,0,0,0,2.18-.58,1.85,1.85,0,0,0,.79-1.58,2,2,0,0,0-.69-1.54,5.92,5.92,0,0,0-2.44-1,8,8,0,0,1-3.33-1.49,3.08,3.08,0,0,1-1.2-2.48,3.23,3.23,0,0,1,1.34-2.63,5.51,5.51,0,0,1,3.47-1,6.65,6.65,0,0,1,2.57.48,6,6,0,0,1,1.86,1.18Z"/><path class="cls-1" d="M167.64,51.92a4.18,4.18,0,0,1-3.31-1.39,5.21,5.21,0,0,1-1.23-3.6v-.4A5.16,5.16,0,0,1,164.36,43a3.93,3.93,0,0,1,3-1.41,3.76,3.76,0,0,1,3,1.21,4.88,4.88,0,0,1,1,3.25v1.13H165l0,.05a4,4,0,0,0,.73,2.37,2.32,2.32,0,0,0,2,.92,4.66,4.66,0,0,0,1.62-.26,3.76,3.76,0,0,0,1.2-.72l.71,1.18a4.35,4.35,0,0,1-1.41.87A5.81,5.81,0,0,1,167.64,51.92ZM167.37,43a2,2,0,0,0-1.56.77,3.63,3.63,0,0,0-.8,1.93l0,0h4.6V45.5a2.75,2.75,0,0,0-.57-1.78A2,2,0,0,0,167.37,43Z"/><path class="cls-1" d="M173.24,42.92V41.75h3.13l.17,1.45a3.43,3.43,0,0,1,1.05-1.2,2.41,2.41,0,0,1,1.42-.43l.44,0a1.77,1.77,0,0,1,.35.07l-.24,1.69-1-.06a2,2,0,0,0-1.2.34,2.16,2.16,0,0,0-.76.94v5.73l1.5.26v1.16h-4.82V50.57l1.5-.26V43.18Z"/><path class="cls-1" d="M184.64,42.92l-1.2.19,2.06,5.68.16.72h.06l.17-.72,2-5.68-1.2-.19V41.75h3.85v1.17l-.82.14-3.35,8.67H185l-3.39-8.67-.82-.14V41.75h3.86Z"/><path class="cls-1" d="M191.76,50.57l1.5-.26V43.18l-1.5-.26V41.75h3.32v8.56l1.5.26v1.16h-4.82Zm3.32-11.37h-1.82V37.34h1.82Z"/><path class="cls-1" d="M202.45,50.5a2.42,2.42,0,0,0,1.59-.56,1.7,1.7,0,0,0,.68-1.37h1.64v.06a2.8,2.8,0,0,1-1.14,2.29,4.2,4.2,0,0,1-2.78,1,4,4,0,0,1-3.33-1.42A5.5,5.5,0,0,1,198,46.93v-.38A5.48,5.48,0,0,1,199.13,43a4,4,0,0,1,3.32-1.42,5.68,5.68,0,0,1,2.15.39,4.5,4.5,0,0,1,1.58,1.09l.08,2.21h-1.44l-.4-1.56a2.43,2.43,0,0,0-.83-.51,3.17,3.17,0,0,0-1.14-.19,2.2,2.2,0,0,0-2,1,4.86,4.86,0,0,0-.61,2.53v.38a4.86,4.86,0,0,0,.61,2.55A2.19,2.19,0,0,0,202.45,50.5Z"/><path class="cls-1" d="M212.7,51.92a4.18,4.18,0,0,1-3.31-1.39,5.17,5.17,0,0,1-1.24-3.6v-.4A5.17,5.17,0,0,1,209.42,43a3.92,3.92,0,0,1,3-1.41,3.79,3.79,0,0,1,3.05,1.21,4.88,4.88,0,0,1,1,3.25v1.13H210l0,.05a4,4,0,0,0,.73,2.37,2.32,2.32,0,0,0,2,.92,4.75,4.75,0,0,0,1.62-.26,4,4,0,0,0,1.2-.72l.71,1.18a4.46,4.46,0,0,1-1.41.87A5.85,5.85,0,0,1,212.7,51.92ZM212.42,43a2,2,0,0,0-1.56.77,3.63,3.63,0,0,0-.79,1.93l0,0h4.6V45.5a2.75,2.75,0,0,0-.57-1.78A2,2,0,0,0,212.42,43Z"/><path class="cls-1" d="M225.93,44.89h-1.36l-.3-1.2a2.36,2.36,0,0,0-.83-.5A3.17,3.17,0,0,0,222.3,43a2.12,2.12,0,0,0-1.44.42,1.33,1.33,0,0,0-.47,1,1.15,1.15,0,0,0,.42.94,4.21,4.21,0,0,0,1.68.6,7.24,7.24,0,0,1,2.82,1.11,2.21,2.21,0,0,1,.92,1.86,2.56,2.56,0,0,1-1.08,2.15,4.46,4.46,0,0,1-2.8.82,7.11,7.11,0,0,1-2-.26,5.75,5.75,0,0,1-1.62-.76V48.62h1.37l.34,1.34a1.83,1.83,0,0,0,.85.41,4.56,4.56,0,0,0,1.11.13,2.56,2.56,0,0,0,1.51-.39,1.19,1.19,0,0,0,.55-1,1.22,1.22,0,0,0-.45-1,4.34,4.34,0,0,0-1.73-.68,7.09,7.09,0,0,1-2.74-1.08,2.16,2.16,0,0,1-.93-1.84,2.64,2.64,0,0,1,1-2.08,4.1,4.1,0,0,1,2.7-.85,6.44,6.44,0,0,1,2,.29,4.31,4.31,0,0,1,1.5.82Z"/></g></g></svg>